# xmcd
#
# Track frame offsets:
# 150
# 11969
# 32126
# 51533
# 70960
# 89968
# 110652
# 128076
# 147401
# 168180
# 186151
# 205419
# 220692
# 237985
# 264793
#
# Disc length: 3584 seconds
#
#
# Revision: 3
# Processed by: cddbd v1.5.2PL0 Copyright (c) Steve Scherf et al.
# Submitted via: FreeRIP 2.945 
#
DISCID=e80dfe0f
DTITLE=Tei - UcuPraCacia
DYEAR=2005
DGENRE=Rhythmic Soul
TTITLE0=어떤날
TTITLE1=사랑은...하나다
TTITLE2=녹(祿)
TTITLE3=나에게 머물다
TTITLE4=미안해요
TTITLE5=마음으로 부르는 소리
TTITLE6=나만의 너에게
TTITLE7=잘지내고 계시죠
TTITLE8=그리움을 사랑한 가시나무
TTITLE9=기침
TTITLE10=목요일을 기억하세요
TTITLE11=아파도 슬퍼도
TTITLE12=하얀 의자
TTITLE13=아프게 희망하기(with 이루마)
TTITLE14=DATA
EXTD=YEAR: 2005
EXTT0=
EXTT1=
EXTT2=
EXTT3=
EXTT4=
EXTT5=
EXTT6=
EXTT7=
EXTT8=
EXTT9=
EXTT10=
EXTT11=
EXTT12=
EXTT13=
EXTT14=
PLAYORDER=
